<svg xmlns="http://www.w3.org/2000/svg" viewBox="0 0 3350.69 432.01"><defs><style>.cls-1{fill:#f7b670;}.cls-2{fill:#e59935;}.cls-3{fill:#ad4224;opacity:0.18;}</style></defs><title>Artboard 21 copy</title><g id="landscape"><polygon class="cls-1" points="3211.45 212.04 3095.68 278.04 2960.38 247.24 2903.19 266.74 2664.66 266.74 2600.5 250.29 2533.55 260.97 2377.32 266.74 2274.11 234.41 2134.62 236.1 2035.28 234.41 1919.07 221.61 1800.05 228.84 1748.24 203.32 1674.89 213.38 1536.2 212.04 1420.43 278.04 1285.13 247.24 1227.94 266.74 989.41 266.74 925.25 250.29 858.3 260.97 702.07 266.74 598.86 234.41 459.37 236.1 360.03 234.41 243.82 221.61 124.8 228.84 72.99 203.32 0 213.33 0 432.01 1674.88 375 1675.12 375 3350.37 375 3350.69 213.38 3211.45 212.04"/><polygon class="cls-2" points="3213.22 222.72 3095.68 292.75 2960.38 257.94 2903.19 281.44 2664.66 281.44 2600.5 261 2533.55 275.68 2377.32 281.44 2274.11 245.11 2134.62 250.8 2035.28 249.11 1919.07 232.31 1800.05 241.55 1748.24 214.02 1674.92 228.04 1537.97 222.72 1420.43 292.75 1285.13 257.94 1227.94 281.44 989.41 281.44 925.25 261 858.3 275.68 702.07 281.44 598.86 245.11 459.37 250.8 360.03 249.11 243.82 232.31 124.8 241.55 72.99 214.02 0 227.98 0 432.01 1674.81 432.01 1674.81 432.01 3350.69 432.01 3350.69 228.06 3213.22 222.72"/><polygon class="cls-3" points="3233.22 241.72 3115.68 311.75 2980.38 276.94 2923.19 300.44 2684.66 300.44 2620.5 280 2553.55 294.68 2397.32 300.44 2294.11 264.11 2154.62 269.8 2055.28 268.11 1939.07 251.31 1820.05 260.55 1768.24 233.02 1674.91 244.21 1557.97 241.72 1440.43 311.75 1305.13 276.94 1247.94 300.44 1009.41 300.44 945.25 280 878.3 294.68 722.07 300.44 618.86 264.11 479.37 269.8 380.03 268.11 263.82 251.31 144.8 260.55 92.99 233.02 0 244.17 0 432.01 1674.81 432.01 3350.69 432.01 3350.63 244.28 3233.22 241.72"/></g></svg>